<mxfile host="app.diagrams.net" modified="2024-06-24T13:33:27.870Z" agent="Mozilla/5.0 (Macintosh; Intel Mac OS X 10_15_7) AppleWebKit/605.1.15 (KHTML, like Gecko) Version/17.5 Safari/605.1.15" version="24.6.2" etag="GrM08GWNkhpJ2_2qcSKx" type="github">
  <diagram name="Page-1" id="JC6lJ82zN95j8DOa_aCE">
    <mxGraphModel>
      <root>
        <mxCell id="0" />
        <mxCell id="1" parent="0" />
      </root>
    </mxGraphModel>
  </diagram>
</mxfile>
